Coordinates
version=1
nRows=18
nColumns=63
inDegrees=yes

Units are S.I. units (second, meters, Newtons, ...)
If the header above contains a line with 'inDegrees', this indicates whether rotational values are in degrees (yes) or radians (no).

endheader
time	pelvis_tilt	pelvis_list	pelvis_rotation	pelvis_tx	pelvis_ty	pelvis_tz	hip_flexion_r	hip_adduction_r	hip_rotation_r	knee_angle_r	knee_angle_r_beta	ankle_angle_r	subtalar_angle_r	mtp_angle_r	hip_flexion_l	hip_adduction_l	hip_rotation_l	knee_angle_l	knee_angle_l_beta	ankle_angle_l	subtalar_angle_l	mtp_angle_l	L5_S1_Flex_Ext	L5_S1_Lat_Bending	L5_S1_axial_rotation	L4_L5_Flex_Ext	L4_L5_Lat_Bending	L4_L5_axial_rotation	L3_L4_Flex_Ext	L3_L4_Lat_Bending	L3_L4_axial_rotation	L2_L3_Flex_Ext	L2_L3_Lat_Bending	L2_L3_axial_rotation	L1_L2_Flex_Ext	L1_L2_Lat_Bending	L1_L2_axial_rotation	L1_T12_Flex_Ext	L1_T12_Lat_Bending	L1_T12_axial_rotation	Abs_r3	Abs_r2	Abs_r1	Abs_t1	Abs_t2	neck_flexion	neck_bending	neck_rotation	arm_flex_r	arm_add_r	arm_rot_r	elbow_flex_r	pro_sup_r	wrist_flex_r	wrist_dev_r	arm_flex_l	arm_add_l	arm_rot_l	elbow_flex_l	pro_sup_l	wrist_flex_l	wrist_dev_l
3.469388	-1.180831	-0.158107	95.506185	0.299932	0.841245	0.727604	-6.957477	1.584892	12.200684	0.546226	0.009533	25.084262	-8.863836	0.000000	-5.948632	-1.414321	14.432931	3.136767	0.054747	27.228270	-14.095901	0.000000	-0.103880	-0.215266	0.746775	-0.192916	-0.286303	0.793449	-0.170665	-0.523397	0.793449	-0.118725	-0.523397	0.653429	-0.096463	-0.438969	0.606755	-0.059357	-0.333446	0.560082	-0.742005	-2.435127	4.153341	0.000000	0.000000	26.838742	1.803612	-2.687408	2.299070	-9.907982	29.765586	26.725258	80.507020	-10.325141	3.806886	11.639180	-11.039253	122.666760	5.614214	40.861322	-7.949250	-1.771156
3.489796	-1.057800	-0.030748	95.656761	0.299729	0.839912	0.727077	-7.120793	1.766290	12.120088	0.515308	0.008994	25.403108	-8.971809	0.000000	-6.088948	-1.590526	14.805280	3.071946	0.053616	27.544320	-14.261432	0.000000	-0.127985	-0.195091	0.648729	-0.237680	-0.259471	0.689275	-0.210266	-0.474345	0.689275	-0.146274	-0.474345	0.567638	-0.118846	-0.397830	0.527092	-0.073130	-0.302196	0.486547	-0.914181	-2.206911	3.608037	0.000000	0.000000	26.878814	1.871750	-2.671749	2.484185	-9.997356	33.800604	24.494232	79.614259	-10.207309	3.807255	11.136030	-11.007540	129.250808	4.162106	35.315198	-8.082097	-2.481976
3.510204	-0.871647	0.076147	95.828086	0.299398	0.838690	0.727013	-7.224121	1.999202	12.032157	0.488927	0.008533	25.697845	-9.080736	0.000000	-6.183357	-1.826905	15.221194	2.971499	0.051862	27.833288	-14.424241	0.000000	-0.151055	-0.164158	0.537495	-0.280524	-0.218330	0.571088	-0.248168	-0.399134	0.571088	-0.172640	-0.399134	0.470308	-0.140269	-0.334751	0.436714	-0.086313	-0.254281	0.403121	-1.078969	-1.856989	2.989383	0.000000	0.000000	26.894769	1.980589	-2.420036	2.841339	-10.200603	38.306929	22.439325	77.481979	-10.263343	3.793571	10.409604	-11.034381	133.111294	3.577608	30.937395	-8.256693	-3.044216
3.530612	-0.619858	0.163846	95.996040	0.298986	0.837609	0.727376	-7.268939	2.282515	11.858963	0.469921	0.008202	25.986646	-9.040104	0.000000	-6.236770	-2.125450	15.571337	2.843082	0.049621	28.114524	-14.468699	0.000000	-0.173099	-0.122011	0.429031	-0.321462	-0.162275	0.455846	-0.284384	-0.296657	0.455846	-0.197835	-0.296657	0.375402	-0.160740	-0.248805	0.348588	-0.098909	-0.188995	0.321773	-1.236428	-1.380212	2.386142	0.000000	0.000000	26.901908	2.064305	-1.986415	3.168525	-10.441337	41.922354	20.767614	75.472732	-10.361140	4.004797	9.565072	-11.094412	134.871982	3.704800	27.289124	-8.491101	-3.444153
3.551020	-0.318799	0.221787	96.146812	0.298543	0.836717	0.728157	-7.247051	2.598253	11.617282	0.456883	0.007974	26.234964	-8.872136	0.000000	-6.243165	-2.467117	15.850978	2.686858	0.046895	28.358587	-14.420086	0.000000	-0.192384	-0.071410	0.331885	-0.357276	-0.094976	0.352628	-0.316068	-0.173627	0.352628	-0.219876	-0.173627	0.290399	-0.178648	-0.145620	0.269656	-0.109928	-0.110614	0.248914	-1.374180	-0.807806	1.845844	0.000000	0.000000	26.895928	2.108080	-1.427642	3.445673	-10.707914	44.585870	19.483382	73.652401	-10.508054	4.345713	8.687206	-11.185283	134.342137	4.370936	24.605685	-8.755308	-3.660328
3.571429	0.013795	0.245692	96.268158	0.298122	0.836056	0.729328	-7.159301	2.928090	11.356303	0.447870	0.007817	26.410712	-8.628021	0.000000	-6.203704	-2.832625	16.068550	2.505826	0.043735	28.537135	-14.324828	0.000000	-0.208378	-0.015356	0.254923	-0.386978	-0.020423	0.270855	-0.342344	-0.037336	0.270855	-0.238155	-0.037336	0.223057	-0.193499	-0.031313	0.207125	-0.119067	-0.023786	0.191192	-1.488420	-0.173707	1.417803	0.000000	0.000000	26.857780	2.098286	-0.806709	3.624540	-10.981675	46.140799	18.625933	72.268389	-10.684067	4.763827	7.886043	-11.306167	131.451652	5.372854	23.038643	-9.083421	-3.757326
3.591837	0.354044	0.228605	96.328926	0.297800	0.835661	0.730845	-7.003500	3.247262	11.113926	0.441337	0.007703	26.500109	-8.307230	0.000000	-6.120389	-3.195923	16.211267	2.302182	0.040181	28.621295	-14.226855	0.000000	-0.220734	0.042035	0.212617	-0.409925	0.055906	0.225906	-0.362643	0.102203	0.225906	-0.252277	0.102203	0.186040	-0.204973	0.085717	0.172752	-0.126127	0.065112	0.159463	-1.576679	0.475503	1.182513	0.000000	0.000000	26.770241	2.019201	-0.241958	3.667214	-11.259547	46.539864	18.235741	71.457768	-10.874947	5.220758	7.293704	-11.461652	126.281688	6.524690	22.713277	-9.509899	-3.832713
3.612245	0.678989	0.164128	96.322126	0.297635	0.835557	0.732674	-6.777443	3.534829	10.902277	0.436129	0.007612	26.495333	-7.913740	0.000000	-5.990760	-3.534858	16.265177	2.080025	0.036303	28.604197	-14.137644	0.000000	-0.229260	0.096308	0.213186	-0.425759	0.128090	0.226510	-0.376651	0.234163	0.226510	-0.262021	0.234163	0.186537	-0.212891	0.196391	0.173213	-0.130999	0.149181	0.159889	-1.637581	1.089456	1.185674	0.000000	0.000000	26.622085	1.883156	0.177595	3.561235	-11.542643	45.850065	18.337660	71.218531	-11.084432	5.633701	7.101213	-11.641455	119.645477	7.563129	23.596597	-10.049718	-4.093663
3.632653	0.981789	0.033687	96.251688	0.297606	0.835742	0.734732	-6.468218	3.782949	10.710125	0.432270	0.007545	26.404652	-7.423555	0.000000	-5.797544	-3.840473	16.208540	1.845429	0.032209	28.493610	-14.031920	0.000000	-0.231970	0.146007	0.239438	-0.430791	0.194189	0.254403	-0.381103	0.355001	0.254403	-0.265118	0.355001	0.209509	-0.215407	0.297737	0.194544	-0.132547	0.226164	0.179579	-1.656936	1.651658	1.331685	0.000000	0.000000	26.441182	1.751679	0.515724	3.375713	-11.837207	44.315422	18.915084	71.516600	-11.307892	5.967853	7.430804	-11.462982	118.747013	7.367711	20.144582	-10.091689	-4.993066
3.653061	1.217648	-0.156430	96.138562	0.297797	0.836166	0.736974	-6.091350	3.956759	10.539931	0.429529	0.007497	26.254896	-6.868125	0.000000	-5.546900	-4.073810	16.075685	1.605793	0.028026	28.295246	-13.939787	0.000000	-0.230391	0.183514	0.287541	-0.427859	0.244073	0.305512	-0.378509	0.446196	0.305512	-0.263314	0.446196	0.251598	-0.213941	0.374222	0.233627	-0.131645	0.284263	0.215655	-1.645659	2.075946	1.599215	0.000000	0.000000	26.239706	1.650283	0.694165	3.132313	-12.094470	42.024003	19.948382	72.276313	-11.530174	6.150345	8.003729	-11.203175	118.484621	6.986605	17.640070	-10.111488	-5.957647
3.673469	1.369469	-0.408229	95.991177	0.298198	0.836791	0.739378	-5.649594	4.039640	10.386968	0.428994	0.007487	26.067197	-6.254991	0.000000	-5.231684	-4.216527	15.868378	1.372507	0.023955	28.028070	-13.843740	0.000000	-0.224266	0.207015	0.353847	-0.416484	0.275331	0.375963	-0.368446	0.503337	0.375963	-0.256313	0.503337	0.309617	-0.208253	0.422146	0.287501	-0.128145	0.320667	0.265386	-1.601908	2.341800	1.967993	0.000000	0.000000	26.041735	1.558376	0.708280	2.835539	-12.267295	38.904568	21.419255	73.590896	-11.646685	6.167446	8.775657	-10.856702	119.251526	6.448416	15.528208	-10.138911	-6.952193
3.693878	1.488677	-0.679505	95.813009	0.298619	0.837687	0.742033	-5.175184	4.079438	10.224901	0.440497	0.007688	25.831953	-5.560696	0.000000	-4.880804	-4.315493	15.621386	1.158893	0.020226	27.716806	-13.770177	0.000000	-0.218190	0.225378	0.461241	-0.405201	0.299752	0.490069	-0.358465	0.547984	0.490069	-0.249370	0.547984	0.403586	-0.202611	0.459590	0.374758	-0.124674	0.349110	0.345931	-1.558511	2.549519	2.565284	0.000000	0.000000	25.840225	1.357060	0.451909	2.480533	-12.457805	35.280736	23.298214	75.001164	-11.869036	5.816653	10.275022	-10.085880	124.556434	4.829693	10.752366	-9.689907	-8.745131
3.714286	1.523633	-0.992106	95.615315	0.299163	0.838680	0.744806	-4.660971	4.030358	10.135071	0.456490	0.007967	25.571547	-4.923732	0.000000	-4.477801	-4.322154	15.339483	0.971399	0.016954	27.374113	-13.707690	0.000000	-0.209666	0.231067	0.588227	-0.389371	0.307319	0.624991	-0.344461	0.561816	0.624991	-0.239628	0.561816	0.514698	-0.194696	0.471191	0.477934	-0.119803	0.357922	0.441170	-1.497626	2.613874	3.271540	0.000000	0.000000	25.697658	1.083174	0.000630	2.124350	-12.561506	31.241348	25.501012	76.708915	-12.170074	5.160917	11.717446	-9.345045	127.689920	3.669460	8.299308	-9.364651	-10.342188
3.734694	1.472998	-1.351147	95.399433	0.299815	0.839692	0.747692	-4.097719	3.894260	10.132430	0.483989	0.008447	25.282161	-4.394439	0.000000	-4.013498	-4.235526	15.023880	0.817442	0.014267	27.007524	-13.648943	0.000000	-0.196717	0.224067	0.732618	-0.365324	0.298008	0.778407	-0.323187	0.544795	0.778407	-0.224828	0.544795	0.641041	-0.182672	0.456916	0.595252	-0.112404	0.347079	0.549464	-1.405132	2.534685	4.074603	0.000000	0.000000	25.623919	0.697950	-0.670688	1.865048	-12.587067	27.455348	27.875586	78.247285	-12.586932	4.187444	13.047918	-8.665203	128.623188	3.064242	7.561383	-9.065347	-11.753497
3.755102	1.351632	-1.734041	95.164364	0.300520	0.840644	0.750669	-3.508065	3.686373	10.226122	0.524442	0.009153	24.987865	-3.976388	0.000000	-3.512791	-4.071157	14.688286	0.697592	0.012175	26.636874	-13.593523	0.000000	-0.181890	0.207495	0.892301	-0.337789	0.275968	0.948070	-0.298828	0.504503	0.948070	-0.207883	0.504503	0.780764	-0.168903	0.423123	0.724995	-0.103932	0.321409	0.669226	-1.299225	2.347222	4.962713	0.000000	0.000000	25.627055	0.205117	-1.531900	1.701227	-12.516717	23.912952	30.379519	79.971946	-13.105248	3.077874	14.176816	-8.036786	127.240115	3.113355	8.078559	-8.596613	-12.878193
3.775510	1.182425	-2.143400	94.926156	0.301212	0.841462	0.753733	-2.886860	3.431981	10.428429	0.578611	0.010099	24.689613	-3.711553	0.000000	-2.968977	-3.853069	14.353074	0.614807	0.010730	26.264744	-13.544009	0.000000	-0.163955	0.185280	1.061185	-0.304481	0.246422	1.127510	-0.269362	0.450489	1.127510	-0.187384	0.450489	0.928537	-0.152249	0.377823	0.862213	-0.093684	0.286999	0.795889	-1.171114	2.095923	5.901995	0.000000	0.000000	25.703983	-0.386415	-2.503426	1.646310	-12.368161	20.837803	32.961234	81.851162	-13.682014	1.914568	15.069183	-7.461348	123.797027	3.851096	9.717433	-7.893742	-13.769122
3.795918	0.981912	-2.564985	94.698762	0.301820	0.842118	0.756873	-2.246142	3.149136	10.708285	0.649112	0.011329	24.410413	-3.575958	0.000000	-2.397645	-3.599239	14.057398	0.566623	0.009889	25.883881	-13.530997	0.000000	-0.144606	0.160960	1.227035	-0.268547	0.214077	1.303724	-0.237573	0.391359	1.303724	-0.165270	0.391359	1.073655	-0.134281	0.328231	0.996966	-0.082628	0.249328	0.920276	-1.032904	1.820817	6.824399	0.000000	0.000000	25.845714	-1.002442	-3.434497	1.733174	-12.163341	18.472837	35.567708	83.712184	-14.241348	0.727173	15.671737	-6.935460	118.482792	5.343171	12.242152	-6.877024	-14.367822
3.816327	0.770024	-2.997664	94.482803	0.302321	0.842602	0.760106	-1.590630	2.860876	11.214648	0.718689	0.012543	24.107152	-3.775327	0.000000	-1.797368	-3.330424	13.778180	0.553825	0.009666	25.502042	-13.517497	0.000000	-0.123441	0.137169	1.389851	-0.229242	0.182434	1.476717	-0.202801	0.333512	1.476717	-0.141080	0.333512	1.216120	-0.114627	0.279715	1.129254	-0.070534	0.212474	1.042389	-0.881725	1.551680	7.729937	0.000000	0.000000	26.036024	-1.688965	-4.377657	1.942845	-11.923843	16.835951	38.168616	85.575235	-14.760084	-0.449731	16.012117	-6.448808	111.643061	7.562848	15.925175	-5.428255	-14.719313
